<?xml version="1.0" standalone="no"?><!DOCTYPE svg PUBLIC "-//W3C//DTD SVG 1.1//EN" "http://www.w3.org/Graphics/SVG/1.1/DTD/svg11.dtd"><svg t="1500449348507" class="icon" style="" viewBox="0 0 1024 1024" version="1.1" xmlns="http://www.w3.org/2000/svg" p-id="1121" xmlns:xlink="http://www.w3.org/1999/xlink" width="64" height="64"><defs><style type="text/css"></style></defs><path d="M844.501333 751.522133c-0.109227-0.119467-0.425387-0.196267-0.523093-0.305066 57.169067-76.360533 92.269653-170.102187 92.269653-272.654934 0-252.307627-205.224533-457.489067-457.544533-457.489066-252.307627 0-457.629867 205.180587-457.629867 457.489066 0 252.264533 205.32224 457.595733 457.629867 457.595734 102.562987 0 196.217173-35.12192 272.578133-92.280747 0.1088 0.22912 0.2176 0.425387 0.31616 0.534613l145.928534 146.026667c20.06272 20.04096 57.070933 15.505067 82.7392-10.152107 25.657173-25.580373 30.214827-62.708907 10.18368-82.750293l-145.949867-146.015147z m-365.796266 123.749547c-218.788693 0-396.763733-177.95328-396.763734-396.709547 0-218.646613 177.974613-396.632747 396.763734-396.632746 218.701227 0 396.665173 177.986133 396.665173 396.632746 0 218.756267-177.963947 396.709547-396.665173 396.709547z" p-id="1122"></path><path d="M691.8656 298.205013h-71.266133l-77.2224 125.5488h-61.934934L404.241493 298.205013H332.961707l77.221973 125.5488H309.212587v47.508054h167.135146v93.5552H309.212587v47.5008h167.135146v113.476266h71.278934v-113.476266h167.159466v-47.5008H547.626667v-93.5552h167.159466V423.753813H614.656z" p-id="1123"></path></svg>