<?xml version="1.0" standalone="no"?>
<!DOCTYPE svg PUBLIC "-//W3C//DTD SVG 20010904//EN"
 "http://www.w3.org/TR/2001/REC-SVG-20010904/DTD/svg10.dtd">
<svg version="1.0" xmlns="http://www.w3.org/2000/svg"
 width="511.000000pt" height="151.000000pt" viewBox="0 0 511.000000 151.000000"
 preserveAspectRatio="xMidYMid meet">
<metadata>
Created by potrace 1.13, written by Peter Selinger 2001-2015
</metadata>
<g transform="translate(0.000000,151.000000) scale(0.100000,-0.100000)"
fill="#000000" stroke="none">
<path d="M302 1480 l-22 -29 -133 -3 -132 -3 -3 -127 -3 -128 81 0 c44 0 80
-3 80 -6 0 -4 -36 -75 -80 -159 l-80 -152 0 -117 0 -116 300 0 300 0 0 -100 0
-100 -305 0 -306 0 3 -117 3 -118 302 -3 302 -2 3 -73 3 -72 148 -3 147 -3 0
76 0 75 270 0 271 0 -3 122 -3 122 -68 30 -67 30 -33 -32 -33 -32 -167 0 -167
0 0 100 0 100 270 0 270 0 0 119 0 118 -59 27 c-73 32 -91 33 -121 1 -23 -25
-25 -25 -191 -25 l-168 0 -3 108 -3 107 -145 0 -145 0 -3 -107 -3 -108 -129 0
c-72 0 -130 4 -130 9 0 5 33 74 73 152 l72 144 478 3 477 2 0 125 c0 142 3
137 -98 170 l-54 17 -27 -26 -27 -26 -322 0 c-316 0 -322 0 -312 19 20 39 14
41 -138 41 l-148 0 -22 -30z"/>
<path d="M1994 1492 c-5 -4 -18 -28 -28 -54 -9 -26 -27 -62 -39 -80 -20 -29
-29 -34 -77 -38 l-55 -5 0 -85 0 -85 52 -3 52 -3 3 -97 3 -97 128 -3 127 -3 0
144 0 143 51 125 c28 68 53 130 56 137 4 9 -25 12 -128 12 -74 0 -139 -4 -145
-8z"/>
<path d="M2440 1265 c0 -251 6 -292 49 -314 14 -8 141 -10 403 -9 l383 3 0 90
0 90 -288 5 c-321 6 -307 2 -307 78 l0 42 274 0 c344 0 326 -8 326 146 l0 104
-110 0 c-110 0 -110 0 -110 -24 0 -57 3 -56 -196 -56 l-184 0 0 40 0 40 -120
0 -120 0 0 -235z"/>
<path d="M4383 1445 c-17 -12 -80 -15 -365 -17 l-343 -3 0 -85 0 -85 108 -3
107 -3 0 -64 0 -65 -105 0 -105 0 0 -555 0 -556 343 3 c317 3 344 4 370 22 63
43 62 31 65 584 l3 502 -101 0 -100 0 0 65 0 65 100 0 100 0 0 91 c0 76 -3 94
-17 105 -23 17 -34 17 -60 -1z m-273 -260 l0 -65 -30 0 -30 0 0 65 0 65 30 0
30 0 0 -65z m-220 -346 c0 -102 -9 -139 -35 -139 -12 0 -15 21 -15 120 l0 120
25 0 25 0 0 -101z m210 -80 l0 -181 38 -38 c30 -30 47 -39 89 -45 29 -4 57 -4
63 0 6 4 10 -6 10 -24 l0 -31 -230 0 -230 0 0 35 0 35 53 0 c65 0 107 24 133
76 16 32 20 66 22 197 l3 157 25 0 24 0 0 -181z m200 61 c0 -113 -1 -120 -20
-120 -19 0 -20 7 -20 120 0 113 1 120 20 120 19 0 20 -7 20 -120z m-2 -592
l-3 -43 -227 -3 -228 -2 0 45 0 45 231 0 230 0 -3 -42z"/>
<path d="M4520 1340 l0 -90 185 0 185 0 -2 -237 -3 -238 -187 -3 -188 -2 1
-298 c0 -340 5 -381 43 -421 42 -43 92 -51 330 -51 l216 0 0 90 0 90 -176 0
c-102 0 -183 4 -195 10 -18 10 -19 23 -19 205 l0 195 126 0 c148 0 194 11 234
56 39 45 42 78 38 459 l-3 320 -292 3 -293 2 0 -90z"/>
<path d="M1817 853 c-4 -3 -7 -120 -7 -260 l0 -253 115 0 115 0 0 155 0 155
505 0 504 0 3 -147 3 -148 113 -3 112 -3 0 256 0 255 -728 0 c-401 0 -732 -3
-735 -7z"/>
<path d="M2440 512 l0 -99 -112 -61 c-194 -105 -254 -125 -393 -131 l-120 -6
-3 -88 -3 -89 178 4 c206 5 251 16 450 116 l113 56 147 -71 c82 -39 163 -76
182 -82 19 -6 114 -11 217 -11 l184 0 0 91 0 90 -124 -2 -124 -2 -108 58 c-60
31 -132 71 -161 88 l-52 31 -3 101 -3 100 -132 3 -133 3 0 -99z"/>
</g>
</svg>
