<?xml version="1.0" standalone="no"?>
<!DOCTYPE svg PUBLIC "-//W3C//DTD SVG 20010904//EN"
 "http://www.w3.org/TR/2001/REC-SVG-20010904/DTD/svg10.dtd">
<svg version="1.0" xmlns="http://www.w3.org/2000/svg"
 width="130.000000pt" height="38.000000pt" viewBox="0 0 130.000000 38.000000"
 preserveAspectRatio="xMidYMid meet">
<metadata>
Created by potrace 1.13, written by Peter Selinger 2001-2015
</metadata>
<g transform="translate(0.000000,38.000000) scale(0.100000,-0.100000)"
fill="#000000" stroke="none">
<path d="M85 370 c-3 -5 -22 -10 -41 -10 -31 0 -34 -2 -34 -30 0 -23 4 -30 20
-30 25 0 25 -2 0 -42 -11 -18 -20 -48 -20 -65 l0 -33 75 0 c73 0 75 -1 75 -25
0 -24 -2 -25 -75 -25 l-75 0 0 -30 0 -30 75 0 c68 0 75 -2 75 -20 0 -17 7 -20
40 -20 33 0 40 3 40 20 0 18 7 20 66 20 l65 0 -3 33 -3 32 -62 -4 c-62 -3 -63
-3 -63 23 0 25 2 26 66 26 l65 0 -3 33 -3 32 -62 -3 c-61 -4 -62 -4 -65 25 -3
25 -7 28 -38 28 -31 0 -35 -3 -38 -27 -3 -24 -8 -28 -33 -28 -34 0 -34 -1 -12
45 l17 35 118 0 118 0 0 34 c0 25 -5 35 -20 39 -11 3 -23 1 -26 -4 -7 -12
-164 -12 -164 1 0 6 -15 10 -34 10 -19 0 -38 -4 -41 -10z"/>
<path d="M498 355 c-6 -14 -17 -25 -25 -25 -18 0 -17 -36 2 -44 8 -3 15 -15
15 -26 0 -15 7 -20 29 -20 27 0 29 3 34 43 3 23 8 54 12 70 7 25 5 27 -24 27
-24 0 -34 -6 -43 -25z"/>
<path d="M622 313 l3 -68 103 -3 c96 -3 102 -2 102 17 0 18 -8 20 -72 23 -100
4 -105 26 -6 30 l73 3 3 33 c3 29 1 32 -22 32 -14 0 -26 -4 -26 -10 0 -5 -22
-10 -50 -10 -27 0 -50 5 -50 10 0 6 -14 10 -30 10 l-31 0 3 -67z"/>
<path d="M1022 362 c-90 -3 -93 -4 -90 -25 2 -14 11 -23 26 -25 31 -5 29 -32
-3 -32 l-25 0 0 -140 0 -140 84 0 c116 0 116 0 116 156 l0 124 -25 0 c-16 0
-25 6 -25 15 0 9 9 15 25 15 20 0 25 5 25 24 0 14 -3 26 -7 28 -5 2 -50 2
-101 0z m18 -68 c0 -8 -4 -12 -10 -9 -5 3 -10 10 -10 16 0 5 5 9 10 9 6 0 10
-7 10 -16z m47 -101 c-3 -10 -5 -2 -5 17 0 19 2 27 5 18 2 -10 2 -26 0 -35z
m-110 0 c-3 -10 -5 -4 -5 12 0 17 2 24 5 18 2 -7 2 -21 0 -30z m63 -8 c0 -38
4 -46 28 -59 26 -15 26 -15 -35 -16 -60 0 -88 15 -40 22 19 3 22 10 25 51 4
60 22 62 22 2z m48 -127 c-3 -8 -24 -13 -58 -13 -34 0 -55 5 -57 13 -4 9 12
12 57 12 45 0 61 -3 58 -12z"/>
<path d="M1144 345 c-10 -25 6 -35 52 -35 l45 0 -3 -57 -3 -58 -47 -3 -48 -3
0 -83 c0 -50 5 -87 12 -94 7 -7 39 -12 75 -12 56 0 63 2 63 19 0 17 -8 20 -47
23 l-48 3 -3 53 -3 52 38 0 c22 0 44 5 51 12 8 8 12 46 12 105 l0 93 -70 0
c-53 0 -72 -4 -76 -15z"/>
<path d="M464 206 c-3 -7 -4 -38 -2 -67 3 -50 5 -54 28 -54 22 0 25 5 28 38
l3 37 125 0 124 0 0 -35 c0 -32 2 -35 30 -35 l30 0 0 65 0 65 -180 0 c-144 0
-182 -3 -186 -14z"/>
<path d="M620 125 c0 -30 -45 -56 -110 -64 -37 -5 -46 -10 -48 -28 -3 -21 1
-23 43 -23 25 0 69 10 96 22 l51 21 44 -21 c25 -13 64 -22 89 -22 41 0 45 2
45 25 0 22 -4 25 -34 25 -49 0 -106 36 -106 66 0 21 -5 24 -35 24 -31 0 -35
-3 -35 -25z"/>
</g>
</svg>
